<svg width="100" height="100" viewBox="0 0 100 100" fill="none" xmlns="http://www.w3.org/2000/svg">
<path d="M71.1375 9.89648H36.6548V23.6896H49.8548L64.241 38.0758V75.4137H84.9307V23.6896H71.1375V9.89648Z" fill="#2F7EC7" fill-opacity="0.46"/>
<path d="M46.5516 27.5859H12.0688V93.1032H60.3447V41.379H46.5516V27.5859Z" fill="#2F7EC7"/>
<path d="M60.3443 37.9308H49.9995V27.5859L60.3443 37.9308Z" fill="#2F7EC7"/>
<path d="M84.8443 20.8448H74.4995V10.5L84.8443 20.8448Z" fill="#2F7EC7" fill-opacity="0.46"/>
<rect x="9.99951" y="72.5" width="38.3333" height="15" rx="1.59633" fill="#9ABEDF"/>
<path d="M22.2093 83V77.4129H25.8569V78.235H23.2309V79.7674H25.6174V80.5656H23.2309V82.1779H25.8569V83H22.2093ZM26.9833 83V77.4129H28.8909C29.5454 77.4129 30.0828 77.5299 30.5032 77.764C30.9289 77.9929 31.2428 78.3174 31.445 78.7378C31.6525 79.1529 31.7563 79.6424 31.7563 80.2064C31.7563 80.7705 31.6525 81.2627 31.445 81.683C31.2428 82.0981 30.9289 82.4227 30.5032 82.6568C30.0828 82.8856 29.5454 83 28.8909 83H26.9833ZM28.0049 82.122H28.843C29.3112 82.122 29.6811 82.0475 29.9524 81.8985C30.2238 81.7442 30.418 81.5261 30.5351 81.244C30.6522 80.9567 30.7107 80.6108 30.7107 80.2064C30.7107 79.8073 30.6522 79.4641 30.5351 79.1768C30.418 78.8895 30.2238 78.6686 29.9524 78.5143C29.6811 78.36 29.3112 78.2829 28.843 78.2829H28.0049V82.122ZM32.8174 83V77.4129H36.4251V78.235H33.839V79.7994H35.9302V80.6055H33.839V83H32.8174Z" fill="white"/>
</svg>
